{"title":"Kyunki Main Jhoot Nahi Bolta - Full 720p Songs - truHD H.264","uid":12293178,"size":281411199,"categoryP":"video","categoryS":"music_videos","magnet":"?xt=urn:btih:67fa7e538181c039419eda010d1529fec7880c9d&amp;dn=Kyunki+Main+Jhoot+Nahi+Bolta+-+Full+720p+Songs+-+truHD+H.264&amp;tr=udp%3A%2F%2Ftracker.openbittorrent.com%3A80&amp;tr=udp%3A%2F%2Fopen.demonii.com%3A1337&amp;tr=udp%3A%2F%2Ftracker.coppersurfer.tk%3A6969&amp;tr=udp%3A%2F%2Fexodus.desync.com%3A6969","seeders":1,"leechers":0,"uploader":"Aainul","files":11,"time":1440588720,"description":"Seeding From High Speed Seedbox\n\nKyunki Main Jhoot Nahi Bolta - Full 720p Songs - truHD H.264\n\nSource: Hon3yHD/WEB-DL\n\nSource File Info:\n\nGeneral\nFormat : Matroska\nFormat version : Version 4 / Version 2\nFile size : 107 MiB\nDuration : 3mn 46s\nOverall bit rate : 3 974 Kbps\nEncoded date : UTC 2015-03-10 20:32:38\nWriting application : mkvmerge v7.7.0 ('Six Voices') 32bit built on Feb 28 2015 23:23:00\nWriting library : libebml v1.3.1 + libmatroska v1.4.2\n_STATISTICS_WRITING_APP : mkvmerge v7.7.0 ('Six Voices') 32bit built on Feb 28 2015 23:23:00\n_STATISTICS_WRITING_DATE_UTC : 2015-03-10 20:32:38\n_STATISTICS_TAGS : BPS DURATION NUMBER_OF_FRAMES NUMBER_OF_BYTES\nDURATION : 00:03:46.336000000\nNUMBER_OF_FRAMES : 7073\nNUMBER_OF_BYTES : 5432064\n\nVideo\nID : 1\nFormat : AVC\nFormat/Info : Advanced Video Codec\nFormat profile : &lt;a class=&quot;__cf_email__&quot; href=&quot;/cdn-cgi/l/email-protection&quot; data-cfemail=&quot;155d7c727d5559213b24&quot;&gt;[email&amp;#160;protected]&lt;/a&gt;&lt;script data-cfhash='f9e31' type=&quot;text/javascript&quot;&gt;\n/* &lt;![CDATA[ */!function(){try{var t=&quot;currentScript&quot;in document?document.currentScript:function(){for(var t=document.getElementsByTagName(&quot;script&quot;),e=t.length;e--;)if(t[e].getAttribute(&quot;data-cfhash&quot;))return t[e]}();if(t&amp;&amp;t.previousSibling){var e,r,n,i,c=t.previousSibling,a=c.getAttribute(&quot;data-cfemail&quot;);if(a){for(e=&quot;&quot;,r=parseInt(a.substr(0,2),16),n=2;a.length-n;n+=2)i=parseInt(a.substr(n,2),16)^r,e+=String.fromCharCode(i);e=document.createTextNode(e),c.parentNode.replaceChild(e,c)}t.parentNode.removeChild(t);}}catch(u){}}()/* ]]&gt; */&lt;/script&gt;\nFormat settings, CABAC : Yes\nFormat settings, ReFrames : 8 frames\nCodec ID : V_MPEG4/ISO/AVC\nDuration : 3mn 46s\nBit rate : 3 703 Kbps\nWidth : 1 280 pixels\nHeight : 544 pixels\nDisplay aspect ratio : 2.35:1\nFrame rate mode : Constant\nFrame rate : 24.000 fps\nColor space : YUV\nChroma subsampling : 4:2:0\nBit depth : 8 bits\nScan type : Progressive\nBits/(Pixel*Frame) : 0.222\nStream size : 99.9 MiB (93%)\nLanguage : English\nDefault : Yes\nForced : No\n_STATISTICS_WRITING_APP : mkvmerge v7.7.0 ('Six Voices') 32bit built on Feb 28 2015 23:23:00\n_STATISTICS_WRITING_DATE_UTC : 2015-03-10 20:32:38\n_STATISTICS_TAGS : BPS DURATION NUMBER_OF_FRAMES NUMBER_OF_BYTES\nDURATION : 00:03:46.334000000\nNUMBER_OF_FRAMES : 5432\nNUMBER_OF_BYTES : 106940853\n\nAudio\nID : 2\nFormat : AC-3\nFormat/Info : Audio Coding 3\nMode extension : CM (complete main)\nFormat settings, Endianness : Big\nCodec ID : A_AC3\nDuration : 3mn 46s\nBit rate mode : Constant\nBit rate : 192 Kbps\nChannel(s) : 2 channels\nChannel positions : Front: L R\nSampling rate : 48.0 KHz\nBit depth : 16 bits\nCompression mode : Lossy\nDelay relative to video : 9ms\nStream size : 5.18 MiB (5%)\nDefault : Yes\nForced : No\n\n\nEncoder: truHD HEVC Encoding Team\n\nEncoded File Info:\n\nGeneral\nFormat : MPEG-4\nFormat profile : Base Media / Version 2\nCodec ID : mp42\nFile size : 47.9 MiB\nDuration : 3mn 46s\nOverall bit rate mode : Variable\nOverall bit rate : 1 776 Kbps\nMovie name : truHD HEVC - Ek Ladki Chahiye \nAlbum : Kyunki Main Jhoot Nahi Bolta\nAlbum/Performer : truHD HEVC Team\nGrouping : truHD HEVC Team\nPerformer : truHD HEVC Team\nComposer : truHD HEVC Team\nPublisher : truHD HEVC Team\nGenre : Bollywood\nRecorded date : 2009\nEncoded date : UTC 2036-02-06 06:28:16\nTagged date : UTC 2036-02-06 06:28:16\nWriting application : HandBrake 0.10.2 2015060900\nComment : truHD HEVC Team\nENCODEDBY : truHD HEVC Team\nWWW : http://kat.cr/user/Aainul\nORIGARTIST : truHD HEVC Team\nCONDUCTOR : truHD HEVC Team\nREMIXEDBY : truHD HEVC Team\n\nVideo\nID : 1\nFormat : AVC\nFormat/Info : Advanced Video Codec\nFormat profile : &lt;a class=&quot;__cf_email__&quot; href=&quot;/cdn-cgi/l/email-protection&quot; data-cfemail=&quot;0a42636d624a4639243b&quot;&gt;[email&amp;#160;protected]&lt;/a&gt;&lt;script data-cfhash='f9e31' type=&quot;text/javascript&quot;&gt;\n/* &lt;![CDATA[ */!function(){try{var t=&quot;currentScript&quot;in document?document.currentScript:function(){for(var t=document.getElementsByTagName(&quot;script&quot;),e=t.length;e--;)if(t[e].getAttribute(&quot;data-cfhash&quot;))return t[e]}();if(t&amp;&amp;t.previousSibling){var e,r,n,i,c=t.previousSibling,a=c.getAttribute(&quot;data-cfemail&quot;);if(a){for(e=&quot;&quot;,r=parseInt(a.substr(0,2),16),n=2;a.length-n;n+=2)i=parseInt(a.substr(n,2),16)^r,e+=String.fromCharCode(i);e=document.createTextNode(e),c.parentNode.replaceChild(e,c)}t.parentNode.removeChild(t);}}catch(u){}}()/* ]]&gt; */&lt;/script&gt;\nFormat settings, CABAC : Yes\nFormat settings, ReFrames : 5 frames\nCodec ID : avc1\nCodec ID/Info : Advanced Video Coding\nDuration : 3mn 46s\nBit rate : 1 609 Kbps\nWidth : 1 280 pixels\nHeight : 544 pixels\nDisplay aspect ratio : 2.35:1\nFrame rate mode : Variable\nFrame rate : 24.000 fps\nMinimum frame rate : 23.810 fps\nMaximum frame rate : 24.390 fps\nColor space : YUV\nChroma subsampling : 4:2:0\nBit depth : 8 bits\nScan type : Progressive\nBits/(Pixel*Frame) : 0.096\nStream size : 43.4 MiB (91%)\nWriting library : x264 core 142 r2479 dd79a61\nEncoding settings : cabac=1 / ref=5 / deblock=1:0:0 / analyse=0x3:0x113 / me=umh / subme=8 / psy=1 / psy_rd=1.00:0.00 / mixed_ref=1 / me_range=16 / chroma_me=1 / trellis=1 / 8x8dct=1 / cqm=0 / deadzone=21,11 / fast_pskip=1 / chroma_qp_offset=-2 / threads=3 / lookahead_threads=1 / sliced_threads=0 / nr=0 / decimate=1 / interlaced=0 / bluray_compat=0 / constrained_intra=0 / bframes=3 / b_pyramid=2 / b_adapt=2 / b_bias=0 / direct=3 / weightb=1 / open_gop=0 / weightp=2 / keyint=240 / keyint_min=24 / scenecut=40 / intra_refresh=0 / rc_lookahead=50 / rc=crf / mbtree=1 / crf=27.0 / qcomp=0.60 / qpmin=0 / qpmax=69 / qpstep=4 / ip_ratio=1.40 / aq=1:1.00\nEncoded date : UTC 2036-02-06 06:28:16\nTagged date : UTC 2036-02-06 06:28:16\nColor primaries : BT.709\nTransfer characteristics : BT.709\nMatrix coefficients : BT.709\n\nAudio\nID : 2\nFormat : AAC\nFormat/Info : Advanced Audio Codec\nFormat profile : LC\nCodec ID : 40\nDuration : 3mn 46s\nBit rate mode : Variable\nBit rate : 160 Kbps\nChannel(s) : 2 channels\nChannel positions : Front: L R\nSampling rate : 48.0 KHz\nCompression mode : Lossy\nStream size : 4.32 MiB (9%)\nTitle : truHD HEVC\nEncoded date : UTC 2036-02-06 06:28:16\nTagged date : UTC 2036-02-06 06:28:16\n\nNote: File Info May Different For All Files\n\n\nScreenShots Gallery\n &lt;a href=&quot;\nhttp://someimage.com/TCZ4&quot; rel=&quot;nofollow&quot; target=&quot;_NEW&quot;&gt;\nhttp://someimage.com/TCZ4&lt;/a&gt;\n\nLike Us On FB And Request Accepted\n\nKickAssTorrents:  &lt;a href=&quot;\nhttps://kat.cr/user/Aainul/&quot; rel=&quot;nofollow&quot; target=&quot;_NEW&quot;&gt;\nhttps://kat.cr/user/Aainul/&lt;/a&gt;\nGloTorrents:  &lt;a href=&quot;\nhttps://glodls.to/user/Aainul&quot; rel=&quot;nofollow&quot; target=&quot;_NEW&quot;&gt;\nhttps://glodls.to/user/Aainul&lt;/a&gt;\nThePirateBay:  &lt;a href=&quot;\nhttps://thepiratebay.vg/user/Aainul/&quot; rel=&quot;nofollow&quot; target=&quot;_NEW&quot;&gt;\nhttps://thepiratebay.vg/user/Aainul/&lt;/a&gt;\n1337x Torrents:  &lt;a href=&quot;\nhttp://1337.to/user/Aainul/&quot; rel=&quot;nofollow&quot; target=&quot;_NEW&quot;&gt;\nhttp://1337.to/user/Aainul/&lt;/a&gt;\n\n\nNote: All Videos Uploaded By Me Are For Review Purpose. If You Like IT, Google IT And Buy IT - Thanks\n\n\nKing Regards\ntruHD HEVC Team\n\nShare Among Friends And Relatives","torrent":{"xt":"urn:btih:67fa7e538181c039419eda010d1529fec7880c9d","amp;dn":"Kyunki+Main+Jhoot+Nahi+Bolta+-+Full+720p+Songs+-+truHD+H.264","amp;tr":["udp%3A%2F%2Ftracker.openbittorrent.com%3A80","udp%3A%2F%2Fopen.demonii.com%3A1337","udp%3A%2F%2Ftracker.coppersurfer.tk%3A6969","udp%3A%2F%2Fexodus.desync.com%3A6969"],"infoHash":"67fa7e538181c039419eda010d1529fec7880c9d","infoHashBuffer":{"type":"Buffer","data":[103,250,126,83,129,129,192,57,65,158,218,1,13,21,41,254,199,136,12,157]},"announce":[],"urlList":[]}}